<?xml version="1.0" encoding="UTF-8" standalone="no"?>
<svg
   xmlns:dc="http://purl.org/dc/elements/1.1/"
   xmlns:cc="http://creativecommons.org/ns#"
   xmlns:rdf="http://www.w3.org/1999/02/22-rdf-syntax-ns#"
   xmlns:svg="http://www.w3.org/2000/svg"
   xmlns="http://www.w3.org/2000/svg"
   xmlns:sodipodi="http://sodipodi.sourceforge.net/DTD/sodipodi-0.dtd"
   xmlns:inkscape="http://www.inkscape.org/namespaces/inkscape"
   id="ic_smn"
   width="24"
   height="24"
   viewBox="0 0 24 24"
   version="1.1"
   sodipodi:docname="ic-coin-smn.svg"
   inkscape:version="0.92.4 (5da689c313, 2019-01-14)">
  <metadata
     id="metadata14">
    <rdf:RDF>
      <cc:Work
         rdf:about="">
        <dc:format>image/svg+xml</dc:format>
        <dc:type
           rdf:resource="http://purl.org/dc/dcmitype/StillImage" />
      </cc:Work>
    </rdf:RDF>
  </metadata>
  <sodipodi:namedview
     pagecolor="#ffffff"
     bordercolor="#666666"
     borderopacity="1"
     objecttolerance="10"
     gridtolerance="10"
     guidetolerance="10"
     inkscape:pageopacity="0"
     inkscape:pageshadow="2"
     inkscape:window-width="1920"
     inkscape:window-height="1017"
     id="namedview12"
     showgrid="false"
     inkscape:zoom="9.8333333"
     inkscape:cx="-4.9322034"
     inkscape:cy="12"
     inkscape:window-x="-8"
     inkscape:window-y="-8"
     inkscape:window-maximized="1"
     inkscape:current-layer="ic_smn" />
  <defs
     id="defs4">
    <style
       type="text/css"
       id="style2">
            .cls-1{fill:#706543}.cls-2{fill:none}
        </style>
  </defs>
  <path
     id="Rectangle_4543"
     d="M0 0h24v24H0z"
     class="cls-2"
     data-name="Rectangle 4543" />
  <path
     style="fill:#323441;fill-opacity:1;stroke-width:0.10169491"
     d="M 10.35568,21.821375 C 7.3334133,21.311367 4.6554283,19.359828 3.2060271,16.611177 1.7447586,13.840022 1.6731687,10.650872 3.0083447,7.8049304 3.5607595,6.6274522 4.1404329,5.8082521 5.0566938,4.9101834 6.2930564,3.6983687 7.8134261,2.8195012 9.4287679,2.382855 10.553588,2.0788026 12.791377,2.0101815 13.946845,2.2443095 c 5.77479,1.1701219 9.295478,7.0951268 7.547183,12.7012335 -1.07484,3.446597 -3.961258,6.055649 -7.509657,6.78803 -0.95869,0.197871 -2.723388,0.240571 -3.628691,0.0878 z m 3.863088,-0.810736 c 3.463517,-0.835616 6.169532,-3.669881 6.887688,-7.214128 0.232987,-1.14984 0.160101,-3.186192 -0.153117,-4.2778669 C 20.015261,6.2491035 17.432468,3.7805108 14.06984,2.9395039 13.025285,2.6782562 10.784036,2.7057292 9.7292983,2.9927097 8.0190286,3.4580522 6.4819936,4.3597289 5.3320256,5.5722989 4.1748573,6.7924612 3.4990251,7.963105 3.0435411,9.5363019 2.7337015,10.606457 2.661581,12.650566 2.8931754,13.798108 c 0.7462049,3.697424 3.7116851,6.653273 7.3271636,7.303367 0.335593,0.06034 0.724576,0.130032 0.864407,0.154867 0.520399,0.09242 2.316023,-0.04835 3.134022,-0.245703 z"
     id="path827"
     inkscape:connector-curvature="0" />
  <path
     style="fill:#323441;fill-opacity:1;stroke-width:0.10169491"
     d="M 10.016949,21.019332 C 7.2031168,20.35555 4.9669863,18.568604 3.706216,15.976271 2.9945819,14.513045 2.8978412,14.024158 2.9012828,11.908475 2.9042222,10.101521 2.9086375,10.065216 3.2444155,9.0870993 4.2291806,6.2184922 6.5170549,4.0486963 9.559322,3.0981081 10.228996,2.8888615 10.526718,2.8596588 12,2.858709 c 1.480165,-9.544e-4 1.767876,0.027139 2.440678,0.2383173 3.188098,1.0006768 5.450775,3.2286244 6.422884,6.324303 0.211753,0.6743257 0.238133,0.9554777 0.238133,2.5379927 0,1.985425 -0.09433,2.497977 -0.701652,3.812443 -1.188199,2.5717 -3.383001,4.435678 -6.058907,5.145642 -1.14389,0.303495 -3.258433,0.353336 -4.324187,0.101925 z"
     id="path835"
     inkscape:connector-curvature="0" />
  <text
     xml:space="preserve"
     style="font-style:normal;font-variant:normal;font-weight:normal;font-stretch:normal;font-size:16px;line-height:1.25;font-family:sans-serif;-inkscape-font-specification:'sans-serif, Normal';font-variant-ligatures:normal;font-variant-caps:normal;font-variant-numeric:normal;font-feature-settings:normal;text-align:start;letter-spacing:0px;word-spacing:0px;writing-mode:lr-tb;text-anchor:start;fill:#ffffff;fill-opacity:1;stroke:none"
     x="7.5254235"
     y="17.796612"
     id="text5152"><tspan
       sodipodi:role="line"
       id="tspan4528"
       x="7.5254235"
       y="17.796612">P</tspan></text>
</svg>
