/* XPM */
static char * C:\Users\Ronan\Desktop\PIVXimages\PNY\pixmaps\pny16_xpm[] = {
"16 16 142 2",
"  	c None",
". 	c #EDEBE6",
"+ 	c #DFDCD5",
"@ 	c #DDD9D1",
"# 	c #DDD9D2",
"$ 	c #E4E0DC",
"% 	c #EAE8E5",
"& 	c #D7D1C9",
"* 	c #DAD7D1",
"= 	c #F2F1EF",
"- 	c #FAFAFA",
"; 	c #FBFAFA",
"> 	c #F3F2F0",
", 	c #DCD9D3",
"' 	c #D2CCC3",
") 	c #E0D8D3",
"! 	c #E5E0DC",
"~ 	c #CEC8BE",
"{ 	c #ECE9E8",
"] 	c #FEFEFE",
"^ 	c #FFFFFF",
"/ 	c #FFFFFE",
"( 	c #EFECEA",
"_ 	c #CDC6BB",
": 	c #DFD8D1",
"< 	c #D1C9C0",
"[ 	c #EBE7E5",
"} 	c #FDFDFC",
"| 	c #EBE9E4",
"1 	c #ECEAE4",
"2 	c #ECEAE3",
"3 	c #EBEAE4",
"4 	c #FEFEFD",
"5 	c #EEEBE9",
"6 	c #CEC7BD",
"7 	c #D9D3C9",
"8 	c #D2CBC2",
"9 	c #EBE8E2",
"0 	c #D4CFC1",
"a 	c #BFB79E",
"b 	c #BEB79E",
"c 	c #BCB59A",
"d 	c #BFB89E",
"e 	c #D1CDBD",
"f 	c #E8E6DE",
"g 	c #FDFDFD",
"h 	c #D5CEC7",
"i 	c #DFD8D4",
"j 	c #CEC7B9",
"k 	c #E7E4E0",
"l 	c #D9D5C8",
"m 	c #D3CFBF",
"n 	c #A69B70",
"o 	c #C3BCA5",
"p 	c #AEA47F",
"q 	c #ABA07A",
"r 	c #A69B6E",
"s 	c #D1CCBC",
"t 	c #D8D4C7",
"u 	c #ECE8E5",
"v 	c #CBC4B6",
"w 	c #DBD6CB",
"x 	c #C7C1AC",
"y 	c #CBC6B3",
"z 	c #ADA37E",
"A 	c #B7AF91",
"B 	c #A99E76",
"C 	c #A79C72",
"D 	c #B8B092",
"E 	c #ABA079",
"F 	c #CAC4B1",
"G 	c #C2BBA5",
"H 	c #D8D3C7",
"I 	c #CEC7BB",
"J 	c #CDC6B8",
"K 	c #DFDCD2",
"L 	c #AEA480",
"M 	c #A89D74",
"N 	c #BCB499",
"O 	c #B3AA89",
"P 	c #B0A684",
"Q 	c #ACA27C",
"R 	c #B5AD8E",
"S 	c #BBB397",
"T 	c #A99E75",
"U 	c #ADA37F",
"V 	c #E3E0D7",
"W 	c #CFC9BD",
"X 	c #D3CCC2",
"Y 	c #E4E1DB",
"Z 	c #E8E5DE",
"` 	c #B2A988",
" .	c #B1A886",
"..	c #BCB49A",
"+.	c #BAB296",
"@.	c #E7E5DE",
"#.	c #E8E6E1",
"$.	c #D7CFC9",
"%.	c #DED7D0",
"&.	c #D1CAC1",
"*.	c #F6F5F2",
"=.	c #DCD8CD",
"-.	c #D2CDBD",
";.	c #E2DFD5",
">.	c #E4E1D7",
",.	c #D4D0C1",
"'.	c #DCD9CD",
").	c #D3CEC5",
"!.	c #E0D9D5",
"~.	c #D7D1CA",
"{.	c #FAF9F8",
"].	c #FDFCFB",
"^.	c #F9F8F6",
"/.	c #ECE9E5",
"(.	c #D3CDC5",
"_.	c #E5DFDD",
":.	c #D4D0C9",
"<.	c #E9E7E2",
"[.	c #F0EEE9",
"}.	c #F3F2EF",
"|.	c #F7F6F3",
"1.	c #F5F4F1",
"2.	c #EDEBE5",
"3.	c #F5F3F0",
"4.	c #EAE8E2",
"5.	c #D2CEC6",
"6.	c #DBD6CC",
"7.	c #E7E2E0",
"8.	c #DEDAD5",
"9.	c #DAD6CD",
"0.	c #E3E0D8",
"a.	c #EEEDE8",
"b.	c #EBE9E3",
"c.	c #E2DFD7",
"d.	c #DBD7D0",
"e.	c #DBD7CE",
"f.	c #EAE5E2",
"g.	c #E4E0DB",
"h.	c #E1DDD6",
"i.	c #E0DCD5",
"j.	c #E1DED8",
"k.	c #E3DFD8",
"                                ",
"          . + @ @ # $           ",
"      % & * = - ; > , ' )       ",
"    ! ~ { ] ^ ^ ^ ^ / ( _ :     ",
"    < [ ] } | 1 2 3 } 4 5 6     ",
"  7 8 } 9 0 a b c d e f g h i   ",
"  j k l m n o p q o r s t u '   ",
"  v w x y z A B C D E F G H I   ",
"  J K L M N O P Q R S T U V W   ",
"  X Y Z `  .N ..+.c O ` @.#.$.  ",
"  %.&.g *.=.-.;.>.,.'.*.] ).!.  ",
"    ~.#.^ {.].] / 4 ^./ /.(.    ",
"    _.:.<.[.}.|.1.2.3.4.5.6.    ",
"      7.8.9.0.a.b.c.9.d.e.      ",
"          f.g.h.i.j.k.          ",
"                                "};
