/* XPM */
static char * C:\Users\Ronan\Desktop\PIVXimages\PNY\pixmaps\pny32_xpm[] = {
"32 32 424 2",
"  	c None",
". 	c #F6F5F3",
"+ 	c #F4F3F1",
"@ 	c #F0EFEC",
"# 	c #EDEAE6",
"$ 	c #EAE8E2",
"% 	c #EAE7E2",
"& 	c #EBE9E4",
"* 	c #EEECE8",
"= 	c #EEECEA",
"- 	c #EBE9E6",
"; 	c #F3F3F1",
"> 	c #EFEEEA",
", 	c #E0DCD4",
"' 	c #D0CBBF",
") 	c #CAC4B7",
"! 	c #CDC7BA",
"~ 	c #CFCABE",
"{ 	c #D0CABF",
"] 	c #CDC7BB",
"^ 	c #CEC8BC",
"/ 	c #DBD6CE",
"( 	c #E7E4E0",
"_ 	c #E8E2E0",
": 	c #EEEDEC",
"< 	c #EEECE9",
"[ 	c #DCD7CF",
"} 	c #C7C0B3",
"| 	c #CAC5BB",
"1 	c #DDDBD5",
"2 	c #EDECE9",
"3 	c #F4F4F2",
"4 	c #F7F7F6",
"5 	c #F5F4F3",
"6 	c #EFEDEB",
"7 	c #E0DDD8",
"8 	c #CCC8BD",
"9 	c #C5BFB1",
"0 	c #D6D1C8",
"a 	c #E5E0DC",
"b 	c #E0D8D4",
"c 	c #ECEAE8",
"d 	c #E7E4DF",
"e 	c #CAC3B6",
"f 	c #C6BEB3",
"g 	c #E0DDDA",
"h 	c #F4F4F3",
"i 	c #FDFCFC",
"j 	c #FEFEFE",
"k 	c #FFFFFF",
"l 	c #FDFDFD",
"m 	c #F6F6F5",
"n 	c #E3E1DE",
"o 	c #C8C1B7",
"p 	c #C6BEB1",
"q 	c #E0DBD4",
"r 	c #E2DBD6",
"s 	c #E9E6E3",
"t 	c #E3E0DA",
"u 	c #C3BAAC",
"v 	c #CDC6BE",
"w 	c #EEECEB",
"x 	c #FCFCFC",
"y 	c #FDFDFC",
"z 	c #F1EFEE",
"A 	c #D2CBC4",
"B 	c #C0B7A8",
"C 	c #DDD8D1",
"D 	c #E2DBD5",
"E 	c #E3DCDA",
"F 	c #E4E0DB",
"G 	c #C1B9AB",
"H 	c #D1C9C3",
"I 	c #F4F1F1",
"J 	c #F6F4F4",
"K 	c #D7D0CA",
"L 	c #BFB5A6",
"M 	c #DFDAD2",
"N 	c #DFD8D3",
"O 	c #E6E0DC",
"P 	c #C7BFB2",
"Q 	c #CBC2BA",
"R 	c #F3F1F0",
"S 	c #F8F7F5",
"T 	c #FCFBFB",
"U 	c #FEFEFD",
"V 	c #EFEEE9",
"W 	c #EFEDE8",
"X 	c #FCFCFB",
"Y 	c #FFFEFE",
"Z 	c #D1C9C2",
"` 	c #C2B9AB",
" .	c #E3DED9",
"..	c #DCD2CD",
"+.	c #E1DAD4",
"@.	c #D6D1C7",
"#.	c #BFB4A7",
"$.	c #ECE8E7",
"%.	c #FEFDFD",
"&.	c #FFFFFE",
"*.	c #F9F8F6",
"=.	c #D5D1C2",
"-.	c #E2DFD6",
";.	c #F4F3EF",
">.	c #CCC6B4",
",.	c #CAC5B1",
"'.	c #F3F2EE",
").	c #E3E0D7",
"!.	c #D4D0C1",
"~.	c #F8F8F6",
"{.	c #FBFBF9",
"].	c #F1EDEC",
"^.	c #C3B9AD",
"/.	c #D1CBC0",
"(.	c #E6E0DD",
"_.	c #E2DDD6",
":.	c #BFB5A5",
"<.	c #D9D2CC",
"[.	c #FBFAFA",
"}.	c #FCFBFA",
"|.	c #E4E1D9",
"1.	c #ECE9E4",
"2.	c #BBB397",
"3.	c #BBB297",
"4.	c #D7D3C6",
"5.	c #B1A786",
"6.	c #AFA682",
"7.	c #D6D2C3",
"8.	c #BBB498",
"9.	c #BAB296",
"0.	c #EAE8E1",
"a.	c #E0DDD3",
"b.	c #DDDACF",
"c.	c #DFD9D5",
"d.	c #BCB1A1",
"e.	c #E3DEDA",
"f.	c #E1D8D6",
"g.	c #D7D0C3",
"h.	c #D6D1C6",
"i.	c #BCB1A2",
"j.	c #EFEBEA",
"k.	c #FAF9F8",
"l.	c #CEC9B7",
"m.	c #B2A988",
"n.	c #C7C1AD",
"o.	c #C5BEA8",
"p.	c #C1BAA2",
"q.	c #C6BFAA",
"r.	c #A69B6F",
"s.	c #A59A6E",
"t.	c #C2BBA4",
"u.	c #C5BFA9",
"v.	c #AFA683",
"w.	c #CAC4B1",
"x.	c #F9F9F6",
"y.	c #F3F0EF",
"z.	c #C1B6AA",
"A.	c #D2CCC3",
"B.	c #E7E1DF",
"C.	c #DAD4C9",
"D.	c #C6BFB0",
"E.	c #CCC3BA",
"F.	c #F7F6F5",
"G.	c #DFDBD1",
"H.	c #CEC9B8",
"I.	c #A69B70",
"J.	c #A89D73",
"K.	c #BDB59C",
"L.	c #D7D2C4",
"M.	c #BCB499",
"N.	c #A49869",
"O.	c #A39769",
"P.	c #B7AE90",
"Q.	c #D5D0C2",
"R.	c #BDB69C",
"S.	c #A89D72",
"T.	c #A69A6E",
"U.	c #DFDCD1",
"V.	c #E9E7E0",
"W.	c #FAF8F7",
"X.	c #D4CCC5",
"Y.	c #C1B9AA",
"Z.	c #E7E3E1",
"`.	c #DCD7CC",
" +	c #BCB3A0",
".+	c #DBD5CF",
"++	c #E1DED4",
"@+	c #B3AA89",
"#+	c #C3BDA6",
"$+	c #A89D74",
"%+	c #A39768",
"&+	c #AA9F77",
"*+	c #CBC6B2",
"=+	c #AFA481",
"-+	c #CAC4B0",
";+	c #ABA17B",
">+	c #A79C71",
",+	c #C4BDA7",
"'+	c #B4AA8A",
")+	c #DFDCD2",
"!+	c #FBFBFA",
"~+	c #E2DDD8",
"{+	c #B9AF9D",
"]+	c #E5E3DE",
"^+	c #DDD8CE",
"/+	c #B8AE99",
"(+	c #DED9D1",
"_+	c #F1EFEB",
":+	c #E4E1D8",
"<+	c #C5BEA9",
"[+	c #D6D2C4",
"}+	c #AFA581",
"|+	c #A79C72",
"1+	c #ABA17A",
"2+	c #C4BEA7",
"3+	c #AAA078",
"4+	c #ACA27C",
"5+	c #D3CEBF",
"6+	c #C9C3AF",
"7+	c #C5BFAA",
"8+	c #DDD9CE",
"9+	c #E9E6DF",
"0+	c #DFDBD3",
"a+	c #B7AD98",
"b+	c #E3DFD9",
"c+	c #E5E1DF",
"d+	c #B7AC97",
"e+	c #D5CFC2",
"f+	c #B7AF91",
"g+	c #B8AF91",
"h+	c #BFB89F",
"i+	c #D1CDBD",
"j+	c #BCB59A",
"k+	c #A4986B",
"l+	c #B0A683",
"m+	c #ACA27B",
"n+	c #A4986A",
"o+	c #B8AF92",
"p+	c #CFCAB9",
"q+	c #BCB49A",
"r+	c #B0A784",
"s+	c #D7D2C7",
"t+	c #B7AC96",
"u+	c #E1DDD8",
"v+	c #E8E6E4",
"w+	c #DFDBD2",
"x+	c #B8AD98",
"y+	c #DEDAD1",
"z+	c #D0CBBA",
"A+	c #A89D75",
"B+	c #A5996D",
"C+	c #A59A6D",
"D+	c #C3BCA5",
"E+	c #B6AD8E",
"F+	c #C5BFA8",
"G+	c #B5AC8C",
"H+	c #A4996B",
"I+	c #CFC9B9",
"J+	c #E5E2DB",
"K+	c #B7AD97",
"L+	c #E2DFD9",
"M+	c #E0DBD3",
"N+	c #BAAF9C",
"O+	c #DEDAD2",
"P+	c #C2BCA6",
"Q+	c #BEB69D",
"R+	c #C0B9A1",
"S+	c #B9B195",
"T+	c #BBB398",
"U+	c #A69A6F",
"V+	c #E6E3DD",
"W+	c #E6E2DD",
"X+	c #E5E1DE",
"Y+	c #C1B8AA",
"Z+	c #D3CEC3",
"`+	c #ECEAE4",
" @	c #C1BAA3",
".@	c #C4BDA6",
"+@	c #B1A886",
"@@	c #ABA07A",
"#@	c #B6AD8F",
"$@	c #AEA47F",
"%@	c #A39869",
"&@	c #C0BAA2",
"*@	c #EBE9E3",
"=@	c #DBD7CF",
"-@	c #BDB2A2",
";@	c #EAE5E3",
">@	c #DCD7CE",
",@	c #D0C8BF",
"'@	c #C4BDAE",
")@	c #F7F7F5",
"!@	c #AEA480",
"~@	c #C0B8A0",
"{@	c #B4AB8B",
"]@	c #C7C1AC",
"^@	c #BFB79E",
"/@	c #CCC6B5",
"(@	c #EEEDE8",
"_@	c #FAFAF8",
":@	c #CCC5B8",
"<@	c #CAC1B7",
"[@	c #E9E3E1",
"}@	c #D8D1C6",
"|@	c #DFD9D3",
"1@	c #EAE8E4",
"2@	c #F7F7F4",
"3@	c #C6C0AA",
"4@	c #D2CDBD",
"5@	c #D6D1C2",
"6@	c #C9C3B0",
"7@	c #B9B194",
"8@	c #B8B093",
"9@	c #F0EEEB",
"0@	c #BDB4A4",
"a@	c #DBD4D0",
"b@	c #E4DCD8",
"c@	c #E6E1DD",
"d@	c #C7BDB3",
"e@	c #D2CDC2",
"f@	c #E5E2DA",
"g@	c #F5F5F1",
"h@	c #F6F5F2",
"i@	c #EEECE6",
"j@	c #E6E4DC",
"k@	c #F8F8F5",
"l@	c #D9D5CC",
"m@	c #C2B8AD",
"n@	c #E7E1DE",
"o@	c #D9D0C7",
"p@	c #E2DCD5",
"q@	c #E0DAD6",
"r@	c #BEB5A7",
"s@	c #E8E5E0",
"t@	c #EDEBE7",
"u@	c #C0B7A9",
"v@	c #DAD4CF",
"w@	c #E3DDD6",
"x@	c #E9E5E2",
"y@	c #D2CCC5",
"z@	c #C6BFB2",
"A@	c #F0EEE9",
"B@	c #F9F8F5",
"C@	c #F5F3F0",
"D@	c #F3F1ED",
"E@	c #F4F3F0",
"F@	c #CBC4B8",
"G@	c #CCC5BD",
"H@	c #D0C7B8",
"I@	c #E2DAD6",
"J@	c #EAE7E5",
"K@	c #CCC7BE",
"L@	c #CCC6BA",
"M@	c #F1F0EC",
"N@	c #E7E4DD",
"O@	c #F5F4F1",
"P@	c #F3F2EF",
"Q@	c #FAF9F7",
"R@	c #FBFAF9",
"S@	c #ECEAE5",
"T@	c #D1CCC1",
"U@	c #C7C2B8",
"V@	c #E5E2DE",
"W@	c #D6D0C5",
"X@	c #E7E0DE",
"Y@	c #EAE8E6",
"Z@	c #CECAC1",
"`@	c #E8E6E0",
" #	c #ECEBE5",
".#	c #F0EEEA",
"+#	c #F8F7F4",
"@#	c #E7E4DC",
"##	c #E8E6DE",
"$#	c #CAC6BC",
"%#	c #E5E3DF",
"&#	c #DBD6CC",
"*#	c #EDEAE9",
"=#	c #D8D5CF",
"-#	c #C7C1B3",
";#	c #D8D4CA",
">#	c #ECE9E3",
",#	c #F1F0EB",
"'#	c #EEEBE7",
")#	c #DCD8CF",
"!#	c #D4D1C9",
"~#	c #E8E6E2",
"{#	c #DBD7CD",
"]#	c #E4DEDB",
"^#	c #EEEBEA",
"/#	c #E8E6E3",
"(#	c #D5D1C8",
"_#	c #CEC9BC",
":#	c #D9D5CA",
"<#	c #E7E5DE",
"[#	c #E2DED5",
"}#	c #DDDAD1",
"|#	c #D0CABE",
"1#	c #C9C3B6",
"2#	c #D3CEC5",
"3#	c #E9E6E1",
"4#	c #D6D0C4",
"5#	c #DED4D0",
"6#	c #E9E4E2",
"7#	c #F0EDEB",
"8#	c #EDEBE8",
"9#	c #E1DED8",
"0#	c #D6D2C8",
"a#	c #CEC8BB",
"b#	c #D4D0C7",
"c#	c #DFDCD6",
"d#	c #EAE8E5",
"e#	c #CBC2B1",
"f#	c #DED4CE",
"g#	c #E4DEDA",
"h#	c #EBE6E3",
"i#	c #EFECEA",
"j#	c #F1EFEC",
"k#	c #E6E2DB",
"l#	c #DBD6CB",
"m#	c #CEC6B5",
"n#	c #D5CCC1",
"o#	c #D7CFC5",
"p#	c #D6CDC2",
"q#	c #D0C6B8",
"                                                                ",
"                                                                ",
"                      . + @ # $ % & * = -                       ",
"                  ; > , ' ) ! ~ { ] ) ^ / ( _                   ",
"              : < [ } | 1 2 3 4 4 5 6 7 8 9 0 a b               ",
"            c d e f g h i j k k k k j l m n o p q r             ",
"          s t u v w x k k k k k k k k k k y z A B C D           ",
"        E F G H I j k k k k k j j k k k k k j J K L M N         ",
"        O P Q R j k k j S T U V W U X S j k k Y J Z `  ...      ",
"      +.@.#.$.%.&.X l *.=.-.;.>.,.'.).!.~.y {.j j ].^./.(.      ",
"      _.:.<.[.k }.).|.1.2.3.4.5.6.7.8.9.0.a.b.{.k x c.d.e.f.    ",
"    g.h.i.j.i y k.l.m.n.o.p.q.r.s.t.p.o.u.v.w.x.y y y.z.A.B.    ",
"    C.D.E.F.$ G.$ H.I.J.K.L.M.N.O.P.Q.R.S.T.w.0.U.V.W.X.Y.Z.    ",
"    `. +.+[.++@+#+l.$+%+&+*+m.%+%+=+-+;+%+>+w.,+'+)+!+~+{+]+    ",
"    ^+/+(+_+:+<+q.[+}+%+|+u.}+%+%+1+2+3+%+4+5+6+7+8+9+0+a+b+c+  ",
"    (+d+e+,+f+g+h+i+j+k+>+u.l+%+%+m+2+&+n+o+p+q+m.r+M.s+t+u+v+  ",
"    w+x+y+z+A+n+B+m.q.m+C+D+E+O.%+l+F+|+&+o.G+H+O.J.I+J+K+L+v+  ",
"    M+N+O+V P+r.%+r.R.Q+|+9.R+B+n+S+R+|+T+R+>+%+U+t.V V+x+W+X+  ",
"    M Y+Z+[.`+ @|+O.1+.@9.+@7+@@|+,+#@f+o.$@%@|+&@*@X =@-@;@    ",
"    >@,@'@)@y W >.}+T.!@#+~@u.S+{@]@^@u.+@r.}+/@(@y _@:@<@[@    ",
"    }@|@d.1@j j 2@-.6+f+E+3@4@5@4@5@6@7@8@-+).2@j k 9@0@a@b@    ",
"      c@d@e@_@k k l S (@f@++V.g@h@i@:+j@V k@%.k k T l@m@n@o@    ",
"      p@q@r@s@U k k k l U l l j k U l j l y k k j t@u@v@w@      ",
"        x@y@z@_+j k {.A@B@U j k &.k U y C@D@U j E@F@G@W+H@      ",
"        I@J@K@L@M@y M@N@O@P@Q@S O@R@A@;.h@S@_@E@T@U@V@W@        ",
"          X@Y@Z@) `@A@h@*. #Q@.#`++#@###!+C@`@] $#%#&#          ",
"            B.*#=#-#;#* '.W X A@>#*.,###'#)#-#!#~#{#            ",
"              ]#^#/#(#) _#:#<#J+[#V+}#|#1#2#]+3#4#              ",
"                5#6#7#8#9#0#' a#! ~ b#c#d#S@, e#                ",
"                    f#g#h#i#j#j#j#9@# k#l#m#                    ",
"                            n#o#p#q#                            ",
"                                                                "};
